<svg width="42" height="42" viewBox="0 0 42 42" fill="none" xmlns="http://www.w3.org/2000/svg">
<g id="Github icon">
<path id="Vector" d="M20.9836 3.12952C10.8404 3.12542 2.625 11.3367 2.625 21.4717C2.625 29.4862 7.76426 36.2989 14.9215 38.8008C15.8854 39.0428 15.7377 38.3578 15.7377 37.8903V34.7115C10.1719 35.3637 9.94629 31.6805 9.57305 31.0653C8.81836 29.7774 7.03418 29.4492 7.56738 28.834C8.83477 28.1819 10.1268 28.9981 11.6238 31.2088C12.7066 32.8125 14.8189 32.5418 15.8895 32.2752C16.1232 31.3114 16.6236 30.45 17.3127 29.7815C11.5459 28.7479 9.14238 25.2287 9.14238 21.0451C9.14238 19.0149 9.81094 17.1487 11.1234 15.6434C10.2867 13.1619 11.2014 11.0373 11.3244 10.7215C13.7074 10.5082 16.1848 12.4278 16.3775 12.5795C17.7311 12.2145 19.2773 12.0217 21.0082 12.0217C22.7473 12.0217 24.2977 12.2227 25.6635 12.5918C26.127 12.2391 28.4238 10.5903 30.6387 10.7912C30.7576 11.1071 31.6518 13.1824 30.8643 15.6311C32.1932 17.1405 32.8699 19.0231 32.8699 21.0574C32.8699 25.2492 30.45 28.7725 24.6668 29.7897C25.1621 30.2768 25.5555 30.8578 25.8238 31.4986C26.0921 32.1395 26.23 32.8273 26.2295 33.5221V38.1364C26.2623 38.5055 26.2295 38.8705 26.8447 38.8705C34.1086 36.4219 39.3381 29.56 39.3381 21.4758C39.3381 11.3367 31.1186 3.12952 20.9836 3.12952Z" fill="white"/>
</g>
</svg>
