<svg width="42" height="42" viewBox="0 0 42 42" fill="none" xmlns="http://www.w3.org/2000/svg">
<g id="Linkedin icon" clip-path="url(#clip0_85_274)">
<path id="Vector" d="M21 0.839966C9.86583 0.839966 0.840027 9.86577 0.840027 21C0.840027 32.1342 9.86583 41.16 21 41.16C32.1342 41.16 41.16 32.1342 41.16 21C41.16 9.86577 32.1342 0.839966 21 0.839966ZM16.065 29.3559H11.9826V16.2183H16.065V29.3559ZM13.9986 14.6055C12.7092 14.6055 11.8755 13.692 11.8755 12.5622C11.8755 11.4093 12.7344 10.5231 14.0511 10.5231C15.3678 10.5231 16.1742 11.4093 16.1994 12.5622C16.1994 13.692 15.3678 14.6055 13.9986 14.6055ZM30.975 29.3559H26.8926V22.0752C26.8926 20.3805 26.3004 19.2297 24.8241 19.2297C23.6964 19.2297 23.0265 20.0088 22.7304 20.7585C22.6212 21.0252 22.5939 21.4032 22.5939 21.7791V29.3538H18.5094V20.4078C18.5094 18.7677 18.4569 17.3964 18.4023 16.2162H21.9492L22.1361 18.0411H22.218C22.7556 17.1843 24.0723 15.9201 26.2752 15.9201C28.9611 15.9201 30.975 17.7198 30.975 21.588V29.3559Z" fill="white"/>
</g>
<defs>
<clipPath id="clip0_85_274">
<rect width="42" height="42" fill="white"/>
</clipPath>
</defs>
</svg>
