<svg width="116" height="48" viewBox="0 0 116 48" fill="none" xmlns="http://www.w3.org/2000/svg">
<path d="M9.68 27.678L6.026 23.7L9.68 19.722H13.55L9.878 23.7L13.55 27.678H9.68ZM22.8881 12.9L18.0641 33.366H15.0941L19.9181 12.9H22.8881ZM101.935 19.722H105.805L109.459 23.7L105.805 27.678H101.935L105.607 23.7L101.935 19.722Z" fill="#854CE6"/>
<path d="M33.8163 21.432C33.8163 22.164 33.6483 22.836 33.3123 23.448C32.9763 24.048 32.4603 24.534 31.7643 24.906C31.0683 25.278 30.2043 25.464 29.1723 25.464H27.2643V30H24.1863V17.364H29.1723C30.1803 17.364 31.0323 17.538 31.7283 17.886C32.4243 18.234 32.9463 18.714 33.2943 19.326C33.6423 19.938 33.8163 20.64 33.8163 21.432ZM28.9383 23.016C29.5263 23.016 29.9643 22.878 30.2523 22.602C30.5403 22.326 30.6843 21.936 30.6843 21.432C30.6843 20.928 30.5403 20.538 30.2523 20.262C29.9643 19.986 29.5263 19.848 28.9383 19.848H27.2643V23.016H28.9383ZM39.9907 30.144C39.0067 30.144 38.1187 29.934 37.3267 29.514C36.5467 29.094 35.9287 28.494 35.4727 27.714C35.0287 26.934 34.8067 26.022 34.8067 24.978C34.8067 23.946 35.0347 23.04 35.4907 22.26C35.9467 21.468 36.5707 20.862 37.3627 20.442C38.1547 20.022 39.0427 19.812 40.0267 19.812C41.0107 19.812 41.8987 20.022 42.6907 20.442C43.4827 20.862 44.1067 21.468 44.5627 22.26C45.0187 23.04 45.2467 23.946 45.2467 24.978C45.2467 26.01 45.0127 26.922 44.5447 27.714C44.0887 28.494 43.4587 29.094 42.6547 29.514C41.8627 29.934 40.9747 30.144 39.9907 30.144ZM39.9907 27.48C40.5787 27.48 41.0767 27.264 41.4847 26.832C41.9047 26.4 42.1147 25.782 42.1147 24.978C42.1147 24.174 41.9107 23.556 41.5027 23.124C41.1067 22.692 40.6147 22.476 40.0267 22.476C39.4267 22.476 38.9287 22.692 38.5327 23.124C38.1367 23.544 37.9387 24.162 37.9387 24.978C37.9387 25.782 38.1307 26.4 38.5147 26.832C38.9107 27.264 39.4027 27.48 39.9907 27.48ZM49.9577 21.63C50.3177 21.078 50.7677 20.646 51.3077 20.334C51.8477 20.01 52.4477 19.848 53.1077 19.848V23.106H52.2617C51.4937 23.106 50.9177 23.274 50.5337 23.61C50.1497 23.934 49.9577 24.51 49.9577 25.338V30H46.8797V19.956H49.9577V21.63ZM60.1769 27.39V30H58.6109C57.4949 30 56.6249 29.73 56.0009 29.19C55.3769 28.638 55.0649 27.744 55.0649 26.508V22.512H53.8409V19.956H55.0649V17.508H58.1429V19.956H60.1589V22.512H58.1429V26.544C58.1429 26.844 58.2149 27.06 58.3589 27.192C58.5029 27.324 58.7429 27.39 59.0789 27.39H60.1769ZM66.9314 22.512H65.2754V30H62.1974V22.512H61.0814V19.956H62.1974V19.668C62.1974 18.432 62.5514 17.496 63.2594 16.86C63.9674 16.212 65.0054 15.888 66.3734 15.888C66.6014 15.888 66.7694 15.894 66.8774 15.906V18.516C66.2894 18.48 65.8754 18.564 65.6354 18.768C65.3954 18.972 65.2754 19.338 65.2754 19.866V19.956H66.9314V22.512ZM72.9497 30.144C71.9657 30.144 71.0777 29.934 70.2857 29.514C69.5057 29.094 68.8877 28.494 68.4317 27.714C67.9877 26.934 67.7657 26.022 67.7657 24.978C67.7657 23.946 67.9937 23.04 68.4497 22.26C68.9057 21.468 69.5297 20.862 70.3217 20.442C71.1137 20.022 72.0017 19.812 72.9857 19.812C73.9697 19.812 74.8577 20.022 75.6497 20.442C76.4417 20.862 77.0657 21.468 77.5217 22.26C77.9777 23.04 78.2057 23.946 78.2057 24.978C78.2057 26.01 77.9717 26.922 77.5037 27.714C77.0477 28.494 76.4177 29.094 75.6137 29.514C74.8217 29.934 73.9337 30.144 72.9497 30.144ZM72.9497 27.48C73.5377 27.48 74.0357 27.264 74.4437 26.832C74.8637 26.4 75.0737 25.782 75.0737 24.978C75.0737 24.174 74.8697 23.556 74.4617 23.124C74.0657 22.692 73.5737 22.476 72.9857 22.476C72.3857 22.476 71.8877 22.692 71.4917 23.124C71.0957 23.544 70.8977 24.162 70.8977 24.978C70.8977 25.782 71.0897 26.4 71.4737 26.832C71.8697 27.264 72.3617 27.48 72.9497 27.48ZM82.9167 16.68V30H79.8387V16.68H82.9167ZM86.6953 18.912C86.1553 18.912 85.7113 18.756 85.3633 18.444C85.0273 18.12 84.8593 17.724 84.8593 17.256C84.8593 16.776 85.0273 16.38 85.3633 16.068C85.7113 15.744 86.1553 15.582 86.6953 15.582C87.2233 15.582 87.6553 15.744 87.9913 16.068C88.3393 16.38 88.5133 16.776 88.5133 17.256C88.5133 17.724 88.3393 18.12 87.9913 18.444C87.6553 18.756 87.2233 18.912 86.6953 18.912ZM88.2253 19.956V30H85.1473V19.956H88.2253ZM95.0278 30.144C94.0438 30.144 93.1558 29.934 92.3638 29.514C91.5838 29.094 90.9658 28.494 90.5098 27.714C90.0658 26.934 89.8438 26.022 89.8438 24.978C89.8438 23.946 90.0718 23.04 90.5278 22.26C90.9838 21.468 91.6078 20.862 92.3998 20.442C93.1918 20.022 94.0798 19.812 95.0638 19.812C96.0478 19.812 96.9358 20.022 97.7278 20.442C98.5198 20.862 99.1438 21.468 99.5998 22.26C100.056 23.04 100.284 23.946 100.284 24.978C100.284 26.01 100.05 26.922 99.5818 27.714C99.1258 28.494 98.4958 29.094 97.6918 29.514C96.8998 29.934 96.0118 30.144 95.0278 30.144ZM95.0278 27.48C95.6158 27.48 96.1138 27.264 96.5218 26.832C96.9418 26.4 97.1518 25.782 97.1518 24.978C97.1518 24.174 96.9478 23.556 96.5398 23.124C96.1438 22.692 95.6518 22.476 95.0638 22.476C94.4638 22.476 93.9658 22.692 93.5698 23.124C93.1738 23.544 92.9758 24.162 92.9758 24.978C92.9758 25.782 93.1678 26.4 93.5518 26.832C93.9478 27.264 94.4398 27.48 95.0278 27.48Z" fill="white"/>
</svg>
